<svg width="40" height="40" viewBox="0 0 40 40" fill="none" xmlns="http://www.w3.org/2000/svg">
<path fill-rule="evenodd" clip-rule="evenodd" d="M0 0H40V40H0V0Z" fill="white"/>
<path fill-rule="evenodd" clip-rule="evenodd" d="M1.7607 36.8754H1.64636C1.64636 36.8183 1.61772 36.7324 1.61772 36.7036C1.61772 36.6751 1.61772 36.6181 1.53181 36.6181H1.35999V36.8754H1.27408V36.2744H1.53181C1.64636 36.2744 1.73207 36.3033 1.73207 36.4174C1.73207 36.5033 1.70343 36.5322 1.675 36.5604C1.70364 36.5892 1.73207 36.6179 1.73207 36.6751V36.7895C1.73207 36.8183 1.73207 36.8183 1.7607 36.8183V36.8754ZM1.64636 36.4462C1.64636 36.3603 1.58909 36.3603 1.56045 36.3603H1.35999V36.5322H1.53181C1.58909 36.5322 1.64636 36.5033 1.64636 36.4462V36.4462ZM2.13299 36.5606C2.13299 36.2174 1.84682 35.9308 1.47454 35.9308C1.1311 35.9308 0.844727 36.2174 0.844727 36.5606C0.844727 36.9327 1.1311 37.2192 1.47454 37.2192C1.84661 37.219 2.13299 36.9327 2.13299 36.5606ZM2.04708 36.5606C2.04708 36.8756 1.78955 37.1045 1.47454 37.1045C1.15953 37.1045 0.930638 36.8754 0.930638 36.5606C0.930638 36.2744 1.15974 36.0167 1.47454 36.0167C1.78934 36.0167 2.04708 36.2744 2.04708 36.5606ZM37.3153 24.9955C37.3153 25.8544 36.7714 26.2547 35.7979 26.2547H33.9375V25.3958H35.7979C35.9698 25.3958 36.1129 25.3674 36.1704 25.3103C36.2275 25.2528 36.2848 25.1669 36.2848 25.0526C36.2848 24.9378 36.2277 24.8235 36.1704 24.7664C36.1129 24.7089 35.9986 24.6805 35.8268 24.6805C34.9396 24.6516 33.823 24.7089 33.823 23.4495C33.823 22.8768 34.1951 22.2469 35.197 22.2469H37.1148V23.1059H35.3399C35.1685 23.1059 35.0538 23.1059 34.9679 23.1629C34.882 23.2488 34.8249 23.3347 34.8249 23.4779C34.8249 23.6211 34.9108 23.707 35.0251 23.7645C35.1399 23.7929 35.2544 23.8216 35.3976 23.8216H35.9127C36.4566 23.8216 36.8002 23.9359 37.0293 24.1366C37.2007 24.3368 37.3153 24.5948 37.3153 24.9955V24.9955ZM33.2789 24.1366C33.0498 23.9359 32.7061 23.8216 32.1622 23.8216H31.6472C31.5042 23.8216 31.3895 23.7927 31.2751 23.7645C31.1604 23.707 31.0749 23.6211 31.0749 23.4779C31.0749 23.3347 31.1033 23.2488 31.2178 23.1629C31.3037 23.1059 31.4181 23.1059 31.5899 23.1059H33.3648V22.2469H31.4469C30.4162 22.2469 30.0726 22.8768 30.0726 23.4495C30.0726 24.7087 31.1892 24.6516 32.0767 24.6805C32.2482 24.6805 32.3629 24.7089 32.42 24.7664C32.477 24.8235 32.5347 24.9378 32.5347 25.0526C32.5347 25.1669 32.4773 25.2528 32.42 25.3103C32.3341 25.3674 32.2197 25.3958 32.0479 25.3958H30.1871V26.2547H32.0479C33.0209 26.2547 33.5651 25.8542 33.5651 24.9955C33.5651 24.5948 33.4507 24.3368 33.2789 24.1366V24.1366ZM29.6146 25.4248H27.3535V24.6232H29.5575V23.822H27.3535V23.0774H29.6146V22.2474H26.4087V26.2549H29.6146V25.4248ZM25.3779 22.4478C25.0629 22.276 24.6908 22.2472 24.2042 22.2472H22.0002V26.2547H22.9732V24.7948H24.004C24.3472 24.7948 24.5479 24.8237 24.691 24.9666C24.8629 25.1669 24.8629 25.5106 24.8629 25.7683V26.2547H25.8073V25.4817C25.8073 25.1096 25.7788 24.9378 25.6643 24.7376C25.5784 24.6228 25.407 24.4798 25.1779 24.3939C25.4352 24.3084 25.865 23.9648 25.865 23.3347C25.8648 22.877 25.6929 22.6192 25.3779 22.4478V22.4478ZM19.9389 22.2472H16.8758L15.6448 23.564L14.4711 22.2472H10.6065V26.2547H14.414L15.645 24.9378L16.8187 26.2547H18.6795V24.9096H19.8818C20.7119 24.9096 21.5424 24.6805 21.5424 23.564C21.5422 22.4762 20.6833 22.2472 19.9389 22.2472ZM24.6049 23.9077C24.4619 23.9648 24.3188 23.9648 24.1469 23.9648L22.9732 23.9936V23.0772H24.1469C24.3188 23.0772 24.4906 23.0772 24.6049 23.1631C24.7197 23.2206 24.8052 23.335 24.8052 23.5068C24.8052 23.6786 24.7197 23.8218 24.6049 23.9077V23.9077ZM19.9389 24.1079H18.6793V23.0772H19.9389C20.2826 23.0772 20.5115 23.2206 20.5115 23.564C20.5115 23.9077 20.2824 24.1079 19.9389 24.1079ZM16.246 24.2509L17.7345 22.6767V25.9115L16.246 24.2509ZM13.9272 25.4248H11.5511V24.6232H13.6694V23.822H11.5511V23.0774H13.9558L15.015 24.2511L13.9272 25.4248V25.4248ZM34.6529 19.3558H33.2789L31.4754 16.35V19.3558H29.5291L29.1566 18.4683H27.1528L26.7807 19.3558H25.6641C25.2061 19.3558 24.6049 19.2413 24.2617 18.8976C23.9467 18.5542 23.7749 18.0962 23.7749 17.3805C23.7749 16.7793 23.8608 16.2354 24.2899 15.8061C24.5761 15.491 25.0915 15.3481 25.7498 15.3481H26.6658V16.207H25.7498C25.4066 16.207 25.2059 16.2643 25.0056 16.4361C24.8338 16.6079 24.7479 16.9227 24.7479 17.352C24.7479 17.7814 24.8338 18.0964 25.0056 18.2969C25.1486 18.4398 25.4066 18.4971 25.6639 18.4971H26.0934L27.4674 15.3483H28.8988L30.5019 19.1269V15.3481H31.9906L33.6796 18.1248V15.3481H34.6526V19.3558H34.6529V19.3558ZM23.2882 15.3481H22.3152V19.3558H23.2882V15.3481V15.3481ZM21.2556 15.5199C20.9406 15.3481 20.5974 15.3481 20.1107 15.3481H17.9063V19.3558H18.8509V17.8957H19.8814C20.2251 17.8957 20.4542 17.9244 20.5972 18.0676C20.769 18.268 20.7401 18.6117 20.7401 18.8406V19.3558H21.7132V18.5542C21.7132 18.2108 21.6848 18.0389 21.5418 17.8385C21.4559 17.7239 21.284 17.5807 21.0838 17.495C21.3411 17.3805 21.7709 17.0657 21.7709 16.4359C21.7711 15.9779 21.5704 15.7201 21.2556 15.5199ZM17.2192 18.5258H14.9863V17.7241H17.1906V16.8941H14.9863V16.1783H17.2192V15.3483H14.0131V19.356H17.2192V18.5258ZM13.2974 15.3481H11.7229L10.5492 18.0676L9.2896 15.3481H7.74381V19.1267L6.11211 15.3481H4.68087L2.96326 19.3558H3.99379L4.36586 18.4683H6.36964L6.74172 19.3558H8.68842V16.207L10.091 19.3558H10.9211L12.3239 16.207V19.3558H13.2972V15.3481H13.2974ZM28.8133 17.6096L28.1547 16.0352L27.4964 17.6096H28.8133ZM20.5115 16.98C20.3685 17.0659 20.2253 17.0659 20.0248 17.0659H18.8509V16.1785H20.0246C20.1964 16.1785 20.3965 16.1785 20.5112 16.2358C20.6256 16.3217 20.6831 16.4363 20.6831 16.6079C20.6831 16.7795 20.6258 16.9225 20.5115 16.98V16.98ZM4.7093 17.6096L5.36775 16.0352L6.0262 17.6096H4.7093V17.6096ZM37.0864 2.78088H2.93441V17.2089L4.10813 14.5466H6.59853L6.94218 15.2051V14.5466H9.86214L10.5206 15.9779L11.1504 14.5466H20.4542C20.8833 14.5466 21.2554 14.6325 21.542 14.8614V14.5466H24.0897V14.8614C24.5188 14.6323 25.0627 14.5466 25.6927 14.5466H29.3855L29.7291 15.2051V14.5466H32.4486L32.8495 15.2051V14.5466H35.5116V20.1575H32.8209L32.3058 19.2988V20.1575H28.9563L28.5842 19.2415H27.7538L27.3817 20.1575H25.6357C24.9486 20.1575 24.4331 19.9856 24.0899 19.814V20.1575H19.9389V18.8692C19.9389 18.6974 19.9103 18.6687 19.7957 18.6687H19.6528V20.1573H11.637V19.4415L11.3509 20.1573H9.66188L9.37572 19.4702V20.1573H6.14075L5.79731 19.2413H4.96704L4.59496 20.1573H2.93441V37.0758H37.0864V26.7986C36.7143 26.9704 36.1988 27.0563 35.6836 27.0563H33.193V26.7127C32.9068 26.942 32.3913 27.0563 31.9049 27.0563H24.061V25.7683C24.061 25.5965 24.0326 25.5965 23.8892 25.5965H23.7462V27.0563H21.1697V25.5392C20.7406 25.7394 20.2537 25.7394 19.8244 25.7394H19.538V27.0563H16.3891L15.645 26.1974L14.8149 27.0563H9.74759V21.4457H14.9004L15.6448 22.3042L16.4464 21.4457H19.9103C20.3108 21.4457 20.9694 21.5028 21.2556 21.789V21.4457H24.3472C24.6622 21.4457 25.2636 21.5028 25.6641 21.789V21.4457H30.3303V21.7892C30.588 21.5601 31.0749 21.4459 31.504 21.4459H34.109V21.7892C34.3955 21.5889 34.796 21.4459 35.3115 21.4459H37.0864V2.78088V2.78088Z" fill="#0077A6"/>
</svg>
