<svg width="52" height="26" viewBox="0 0 52 26" fill="none" xmlns="http://www.w3.org/2000/svg">
<path d="M1.62242 20.8256C1.38993 20.4501 1.07994 19.8503 0.888477 19.4061C-0.228392 16.8052 -0.278537 14.1127 0.660544 11.5301C1.69536 8.69567 3.67382 6.52978 6.2312 5.42162C9.44505 4.03418 12.9962 4.30433 16.0779 6.14055C18.0335 7.267 19.4194 9.00705 20.4724 11.4706C20.6046 11.7865 20.7231 12.1208 20.8417 12.4093L1.62242 20.8256ZM8.04098 9.60233C5.75711 10.5868 4.58098 12.739 4.82714 15.2575L14.4915 11.0768C12.8276 9.11693 10.6668 8.46671 8.04098 9.60233ZM15.695 18.6964C15.6904 18.6964 15.6904 18.701 15.6904 18.701L15.4898 18.5636C14.9109 19.5023 14.0128 20.267 12.8777 20.7615C10.7169 21.7048 8.71566 21.4621 7.27514 20.1937L7.14292 20.3952C7.14292 20.3952 7.14292 20.3906 7.13837 20.3906L4.68582 24.0768C5.29668 24.5026 5.94858 24.8598 6.63237 25.1483C9.34022 26.2793 12.1118 26.2244 14.8425 25.0338C16.8164 24.1729 18.3663 22.8633 19.4239 21.2011L15.695 18.6964ZM27.5566 0V20.4868L30.7294 21.7781L28.9287 26L25.4277 24.5347C24.6436 24.1913 24.1057 23.6693 23.7045 23.0786C23.317 22.4787 23.0298 21.6499 23.0298 20.5417V0H27.5566ZM35.7711 15.2712C35.7711 13.5266 36.5415 11.9606 37.7542 10.8982L34.4994 7.25326C32.2929 9.2131 30.9025 12.075 30.9025 15.2621C30.8982 18.4537 32.2883 21.3202 34.4902 23.28L37.7406 19.6351C36.5326 18.5681 35.7711 17.0113 35.7711 15.2712ZM41.5517 21.0821C40.9132 21.0821 40.2935 20.9722 39.7191 20.7799L38.1646 25.4185C39.2268 25.7756 40.3618 25.9725 41.5471 25.9725C46.6982 25.9771 50.9972 22.3047 51.9954 17.428L47.2178 16.448C46.6754 19.0993 44.3462 21.0867 41.5517 21.0821ZM41.5652 4.56993C40.3846 4.56993 39.2495 4.76224 38.1874 5.11482L39.728 9.75802C40.3071 9.56568 40.9225 9.46038 41.5606 9.46038C44.3597 9.46496 46.6939 11.4614 47.2225 14.1173L52 13.1465C51.02 8.26066 46.7212 4.57448 41.5652 4.56993Z" fill="white"/>
</svg>
